
<svg xmlns="http://www.w3.org/2000/svg" width="200" height="60" viewBox="0 0 200 60" fill="none">
  <rect width="40" height="40" rx="8" fill="#8B5CF6" />
  <path d="M10 20C10 14.4772 14.4772 10 20 10C25.5228 10 30 14.4772 30 20V30C30 35.5228 25.5228 40 20 40C14.4772 40 10 35.5228 10 30V20Z" fill="#F3F4F6" />
  <path d="M20 15C17.2386 15 15 17.2386 15 20V30C15 32.7614 17.2386 35 20 35C22.7614 35 25 32.7614 25 30V20C25 17.2386 22.7614 15 20 15Z" fill="#8B5CF6" />
  <path d="M19.5 25C18.1193 25 17 23.8807 17 22.5C17 21.1193 18.1193 20 19.5 20H20.5C21.8807 20 23 21.1193 23 22.5C23 23.8807 21.8807 25 20.5 25H19.5Z" fill="#F3F4F6" />
  <path d="M50 22.5H55.3398V38H60.5V22.5H65.8398V18H50V22.5Z" fill="#333333" />
  <path d="M69.4688 18V38H74.6289V30.668H82.9844V26.168H74.6289V22.5H83.9414V18H69.4688Z" fill="#333333" />
  <path d="M88.5 18V38H93.6602V22.5H101.44V18H88.5Z" fill="#333333" />
  <path d="M105.234 18V38H110.395V18H105.234Z" fill="#333333" />
  <path d="M119.531 38.4375C124.885 38.4375 128.758 34.7188 128.758 28C128.758 21.2812 124.885 17.5625 119.531 17.5625C114.178 17.5625 110.305 21.2812 110.305 28C110.305 34.7188 114.178 38.4375 119.531 38.4375ZM119.531 33.9375C117.156 33.9375 115.602 31.7656 115.602 28C115.602 24.2344 117.156 22.0625 119.531 22.0625C121.906 22.0625 123.461 24.2344 123.461 28C123.461 31.7656 121.906 33.9375 119.531 33.9375Z" fill="#333333" />
  <path d="M133.5 28C133.5 34.7188 137.373 38.4375 141.75 38.4375C144.953 38.4375 147.25 36.6172 148.43 34.2891V38H153.5V18H148.43V21.7109C147.25 19.3828 144.953 17.5625 141.75 17.5625C137.373 17.5625 133.5 21.2812 133.5 28ZM148.43 28C148.43 31.7656 146.875 33.9375 144.5 33.9375C142.125 33.9375 140.57 31.7656 140.57 28C140.57 24.2344 142.125 22.0625 144.5 22.0625C146.875 22.0625 148.43 24.2344 148.43 28Z" fill="#333333" />
  <path d="M163.172 18V38H168.332V25.1484L177.328 38H182.852V18H177.691V30.8516L168.695 18H163.172Z" fill="#333333" />
  
  <!-- Wavy styled decorative element -->
  <path d="M170 50C175 48 180 52 185 50" stroke="#8B5CF6" stroke-width="2" stroke-linecap="round"/>
  <path d="M160 45C165 43 170 47 175 45" stroke="#8B5CF6" stroke-width="2" stroke-linecap="round"/>
  <path d="M180 45C185 43 190 47 195 45" stroke="#8B5CF6" stroke-width="2" stroke-linecap="round"/>
</svg>
