
<svg xmlns="http://www.w3.org/2000/svg" width="200" height="60" viewBox="0 0 200 60" fill="none">
  <!-- Background rectangle with rounded corners for the logo -->
  <rect width="40" height="40" rx="8" fill="#8B5CF6" />
  
  <!-- Graduation cap -->
  <path d="M10 20L20 15L30 20L20 25L10 20Z" fill="#F3F4F6" stroke="#F3F4F6" stroke-width="0.5"/>
  <path d="M25 21.5V26.5" stroke="#8B5CF6" stroke-width="2"/>
  <path d="M25 26.5C25 26.5 24 29 20 29C16 29 15 26.5 15 26.5V21.5" stroke="#F3F4F6" stroke-width="0.5"/>
  
  <!-- Brain outline -->
  <path d="M15 32C15 30.3431 16.3431 29 18 29C18.8145 29 19.5476 29.3511 20 29.9211C20.4524 29.3511 21.1855 29 22 29C23.6569 29 25 30.3431 25 32C25 32.7632 24.7259 33.4631 24.2722 34C24.7259 34.5369 25 35.2368 25 36C25 37.6569 23.6569 39 22 39C21.1855 39 20.4524 38.6489 20 38.0789C19.5476 38.6489 18.8145 39 18 39C16.3431 39 15 37.6569 15 36C15 35.2368 15.2741 34.5369 15.7278 34C15.2741 33.4631 15 32.7632 15 32Z" stroke="#F3F4F6" stroke-width="0.5"/>

  <!-- Book -->
  <path d="M12 41C12 41 15 40 20 40C25 40 28 41 28 41V45C28 45 25 44 20 44C15 44 12 45 12 45V41Z" stroke="#F3F4F6" stroke-width="0.5" fill="#8B5CF6" fill-opacity="0.2"/>
  <path d="M20 40V44" stroke="#F3F4F6" stroke-width="0.5"/>
  
  <!-- Tutorly text -->
  <path d="M50 22.5H55.3398V38H60.5V22.5H65.8398V18H50V22.5Z" fill="#333333" />
  <path d="M69.4688 18V38H74.6289V30.668H82.9844V26.168H74.6289V22.5H83.9414V18H69.4688Z" fill="#333333" />
  <path d="M88.5 18V38H93.6602V22.5H101.44V18H88.5Z" fill="#333333" />
  <path d="M105.234 18V38H110.395V18H105.234Z" fill="#333333" />
  <path d="M119.531 38.4375C124.885 38.4375 128.758 34.7188 128.758 28C128.758 21.2812 124.885 17.5625 119.531 17.5625C114.178 17.5625 110.305 21.2812 110.305 28C110.305 34.7188 114.178 38.4375 119.531 38.4375ZM119.531 33.9375C117.156 33.9375 115.602 31.7656 115.602 28C115.602 24.2344 117.156 22.0625 119.531 22.0625C121.906 22.0625 123.461 24.2344 123.461 28C123.461 31.7656 121.906 33.9375 119.531 33.9375Z" fill="#333333" />
  <path d="M133.5 28C133.5 34.7188 137.373 38.4375 141.75 38.4375C144.953 38.4375 147.25 36.6172 148.43 34.2891V38H153.5V18H148.43V21.7109C147.25 19.3828 144.953 17.5625 141.75 17.5625C137.373 17.5625 133.5 21.2812 133.5 28ZM148.43 28C148.43 31.7656 146.875 33.9375 144.5 33.9375C142.125 33.9375 140.57 31.7656 140.57 28C140.57 24.2344 142.125 22.0625 144.5 22.0625C146.875 22.0625 148.43 24.2344 148.43 28Z" fill="#333333" />
  <path d="M163.172 18V38H168.332V25.1484L177.328 38H182.852V18H177.691V30.8516L168.695 18H163.172Z" fill="#333333" />
  
  <!-- Wavy styled decorative element -->
  <path d="M170 50C175 48 180 52 185 50" stroke="#8B5CF6" stroke-width="2" stroke-linecap="round"/>
  <path d="M160 45C165 43 170 47 175 45" stroke="#8B5CF6" stroke-width="2" stroke-linecap="round"/>
  <path d="M180 45C185 43 190 47 195 45" stroke="#8B5CF6" stroke-width="2" stroke-linecap="round"/>
</svg>
